<svg viewBox="0 0 108 19" fill="none" xmlns="http://www.w3.org/2000/svg">
<path d="M10.6508 3.04919L12.0161 5.8025C12.2023 6.18576 12.6988 6.55339 13.1178 6.62378L15.5925 7.03834C17.1751 7.30429 17.5475 8.46193 16.407 9.60392L14.4831 11.5437C14.1573 11.8722 13.9789 12.5058 14.0797 12.9595L14.6305 15.3608C15.0649 17.2615 14.0642 17.9968 12.3963 17.0034L10.0767 15.619C9.65781 15.3687 8.96737 15.3687 8.54065 15.619L6.2211 17.0034C4.56094 17.9968 3.55243 17.2537 3.98687 15.3608L4.53767 12.9595C4.63852 12.5058 4.46009 11.8722 4.13426 11.5437L2.21034 9.60392C1.07771 8.46193 1.44232 7.30429 3.0249 7.03834L5.49963 6.62378C5.91079 6.55339 6.40729 6.18576 6.59347 5.8025L7.95883 3.04919C8.70358 1.55522 9.91377 1.55522 10.6508 3.04919Z" fill="#FFBE14"/>
<path d="M32.9955 3.04919L34.3608 5.8025C34.5471 6.18576 35.0435 6.55339 35.4625 6.62378L37.9372 7.03834C39.5198 7.30429 39.8922 8.46193 38.7518 9.60392L36.8279 11.5437C36.502 11.8722 36.3236 12.5058 36.4244 12.9595L36.9753 15.3608C37.4097 17.2615 36.4089 17.9968 34.741 17.0034L32.4214 15.619C32.0025 15.3687 31.3121 15.3687 30.8854 15.619L28.5658 17.0034C26.9057 17.9968 25.8972 17.2537 26.3316 15.3608L26.8824 12.9595C26.9832 12.5058 26.8048 11.8722 26.479 11.5437L24.5551 9.60392C23.4224 8.46193 23.787 7.30429 25.3696 7.03834L27.8444 6.62378C28.2555 6.55339 28.752 6.18576 28.9382 5.8025L30.3036 3.04919C31.0483 1.55522 32.2585 1.55522 32.9955 3.04919Z" fill="#FFBE14"/>
<path d="M55.3402 3.04919L56.7056 5.8025C56.8918 6.18576 57.3883 6.55339 57.8072 6.62378L60.2819 7.03834C61.8645 7.30429 62.2369 8.46193 61.0965 9.60392L59.1726 11.5437C58.8467 11.8722 58.6683 12.5058 58.7691 12.9595L59.32 15.3608C59.7544 17.2615 58.7536 17.9968 57.0857 17.0034L54.7661 15.619C54.3473 15.3687 53.6568 15.3687 53.2301 15.619L50.9106 17.0034C49.2504 17.9968 48.2419 17.2537 48.6763 15.3608L49.2271 12.9595C49.328 12.5058 49.1495 11.8722 48.8237 11.5437L46.8998 9.60392C45.7672 8.46193 46.1318 7.30429 47.7144 7.03834L50.1891 6.62378C50.6002 6.55339 51.0967 6.18576 51.2829 5.8025L52.6483 3.04919C53.393 1.55522 54.6032 1.55522 55.3402 3.04919Z" fill="#FFBE14"/>
<path d="M77.6854 3.04919L79.0508 5.8025C79.237 6.18576 79.7335 6.55339 80.1524 6.62378L82.6271 7.03834C84.2097 7.30429 84.5821 8.46193 83.4417 9.60392L81.5178 11.5437C81.1919 11.8722 81.0136 12.5058 81.1143 12.9595L81.6652 15.3608C82.0996 17.2615 81.0988 17.9968 79.431 17.0034L77.1114 15.619C76.6925 15.3687 76.002 15.3687 75.5753 15.619L73.2558 17.0034C71.5956 17.9968 70.5871 17.2537 71.0215 15.3608L71.5723 12.9595C71.6732 12.5058 71.4948 11.8722 71.1689 11.5437L69.245 9.60392C68.1124 8.46193 68.477 7.30429 70.0596 7.03834L72.5343 6.62378C72.9455 6.55339 73.442 6.18576 73.6281 5.8025L74.9935 3.04919C75.7382 1.55522 76.9484 1.55522 77.6854 3.04919Z" fill="#FFBE14"/>
<path d="M100.03 3.04919L101.396 5.8025C101.582 6.18576 102.078 6.55339 102.497 6.62378L104.972 7.03834C106.554 7.30429 106.927 8.46193 105.786 9.60392L103.863 11.5437C103.537 11.8722 103.358 12.5058 103.459 12.9595L104.01 15.3608C104.444 17.2615 103.444 17.9968 101.776 17.0034L99.4561 15.619C99.0372 15.3687 98.3468 15.3687 97.92 15.619L95.6005 17.0034C93.9403 17.9968 92.9318 17.2537 93.3663 15.3608L93.9171 12.9595C94.0179 12.5058 93.8395 11.8722 93.5137 11.5437L91.5897 9.60392C90.4571 8.46193 90.8217 7.30429 92.4043 7.03834L94.879 6.62378C95.2902 6.55339 95.7867 6.18576 95.9729 5.8025L97.3382 3.04919C98.083 1.55522 99.2932 1.55522 100.03 3.04919Z" fill="#D9D9D9"/>
</svg>
